<svg width="940" height="143" xmlns="http://www.w3.org/2000/svg" xmlns:xlink="http://www.w3.org/1999/xlink">
  <defs>
    <path id="a" d="M.009.042h24.893v23.953H.009z"/>
  </defs>
  <g fill="none" fill-rule="evenodd">
    <path fill="#FFEAB0" d="M-1 0h942v79.02L-1 129z"/>
    <g fill="#555">
      <path d="M33.48 34.45c-.56 0-1.02-.175-1.38-.525-.36-.35-.54-.805-.54-1.365 0-.56.18-1.015.54-1.365.36-.35.82-.525 1.38-.525.56 0 1.015.175 1.365.525.35.35.525.805.525 1.365 0 .56-.175 1.015-.525 1.365-.35.35-.805.525-1.365.525zM32.34 52c-.2 0-.3-.1-.3-.3V37.03c0-.2.1-.3.3-.3h2.28c.2 0 .3.1.3.3V51.7c0 .2-.1.3-.3.3h-2.28zm8.61-20.91a.86.86 0 0 1 .39-.09h2.37c.2 0 .3.1.3.3v20.4c0 .2-.1.3-.3.3h-2.28c-.2 0-.3-.1-.3-.3V33.94c0-.04-.015-.07-.045-.09-.03-.02-.065-.02-.105 0l-2.76.96-.12.03c-.14 0-.21-.09-.21-.27v-1.65c0-.18.07-.3.21-.36l2.85-1.47zm15.51 9.69c-.06.06-.06.12 0 .18.76.44 1.33 1.08 1.71 1.92.42.86.63 1.92.63 3.18 0 1.12-.2 2.15-.6 3.09a5.076 5.076 0 0 1-2.01 2.265c-.9.55-1.95.825-3.15.825-1.18 0-2.215-.275-3.105-.825-.89-.55-1.555-1.325-1.995-2.325-.4-.92-.6-1.94-.6-3.06s.2-2.15.6-3.09c.38-.84.95-1.5 1.71-1.98.08-.06.08-.12 0-.18-.68-.42-1.2-.97-1.56-1.65-.48-.84-.72-1.8-.72-2.88 0-1.14.25-2.15.75-3.03.46-.82 1.12-1.45 1.98-1.89.86-.44 1.85-.66 2.97-.66 1.16 0 2.18.23 3.06.69a4.61 4.61 0 0 1 2.01 2.04c.44.84.66 1.8.66 2.88 0 1.06-.23 1.99-.69 2.79-.38.66-.93 1.23-1.65 1.71zm-5.85-6.12c-.26.5-.39 1.12-.39 1.86 0 .76.15 1.41.45 1.95.22.46.535.81.945 1.05.41.24.895.36 1.455.36 1.16 0 1.99-.51 2.49-1.53.28-.52.42-1.14.42-1.86 0-.7-.14-1.31-.42-1.83-.24-.48-.57-.855-.99-1.125-.42-.27-.92-.405-1.5-.405s-1.075.135-1.485.405c-.41.27-.735.645-.975 1.125zm4.89 13.41c.3-.66.45-1.41.45-2.25 0-.68-.12-1.35-.36-2.01-.2-.58-.515-1.025-.945-1.335-.43-.31-.955-.465-1.575-.465-.6 0-1.11.16-1.53.48-.42.32-.74.76-.96 1.32-.22.54-.33 1.22-.33 2.04 0 .88.13 1.62.39 2.22.2.54.51.955.93 1.245.42.29.92.435 1.5.435s1.08-.145 1.5-.435c.42-.29.73-.705.93-1.245zm13.05-11.55c1.44 0 2.57.45 3.39 1.35.82.9 1.23 2.14 1.23 3.72V51.7c0 .2-.1.3-.3.3h-2.28c-.2 0-.3-.1-.3-.3v-9.69c0-.92-.235-1.65-.705-2.19s-1.105-.81-1.905-.81c-.82 0-1.475.275-1.965.825-.49.55-.735 1.285-.735 2.205v9.66c0 .2-.1.3-.3.3H62.4c-.2 0-.3-.1-.3-.3V37.03c0-.2.1-.3.3-.3h2.28c.2 0 .3.1.3.3v.93c0 .06.015.095.045.105.03.01.065-.015.105-.075.78-.98 1.92-1.47 3.42-1.47zm19.38-.03c1.66 0 2.995.465 4.005 1.395 1.01.93 1.515 2.145 1.515 3.645V51.7c0 .2-.1.3-.3.3h-2.28c-.2 0-.3-.1-.3-.3v-.87c0-.1-.05-.12-.15-.06-.92.98-2.19 1.47-3.81 1.47-1.28 0-2.375-.35-3.285-1.05-.91-.7-1.365-1.85-1.365-3.45 0-1.64.53-2.885 1.59-3.735 1.06-.85 2.51-1.275 4.35-1.275h2.55c.08 0 .12-.04.12-.12v-.84c0-.86-.225-1.54-.675-2.04-.45-.5-1.095-.75-1.935-.75-.68 0-1.235.165-1.665.495-.43.33-.695.775-.795 1.335-.02.18-.13.27-.33.27l-2.43-.15a.318.318 0 0 1-.21-.075c-.06-.05-.08-.115-.06-.195.12-1.24.685-2.245 1.695-3.015s2.265-1.155 3.765-1.155zm-.63 13.29c.88 0 1.645-.25 2.295-.75.65-.5.975-1.17.975-2.01V45.1c0-.08-.04-.12-.12-.12h-2.31c-1 0-1.795.22-2.385.66-.59.44-.885 1.08-.885 1.92 0 .74.225 1.295.675 1.665.45.37 1.035.555 1.755.555zM99.54 52c-.18 0-.29-.09-.33-.27l-3.75-14.67-.03-.12c0-.14.09-.21.27-.21h2.28c.2 0 .31.09.33.27l2.34 10.83c.02.06.04.09.06.09.02 0 .04-.03.06-.09L103.2 37c.04-.18.15-.27.33-.27h2.04c.18 0 .29.09.33.27l2.46 10.83c.02.06.04.09.06.09.02 0 .04-.03.06-.09L110.91 37c.04-.18.15-.27.33-.27l2.25.03c.1 0 .175.03.225.09.05.06.055.14.015.24l-3.78 14.64c-.02.18-.13.27-.33.27h-2.28c-.18 0-.29-.09-.33-.27l-2.43-9.99c-.02-.06-.04-.09-.06-.09-.02 0-.04.03-.06.09l-2.34 9.99c-.04.18-.15.27-.33.27h-2.25zm21.6-15.51c1.66 0 2.995.465 4.005 1.395 1.01.93 1.515 2.145 1.515 3.645V51.7c0 .2-.1.3-.3.3h-2.28c-.2 0-.3-.1-.3-.3v-.87c0-.1-.05-.12-.15-.06-.92.98-2.19 1.47-3.81 1.47-1.28 0-2.375-.35-3.285-1.05-.91-.7-1.365-1.85-1.365-3.45 0-1.64.53-2.885 1.59-3.735 1.06-.85 2.51-1.275 4.35-1.275h2.55c.08 0 .12-.04.12-.12v-.84c0-.86-.225-1.54-.675-2.04-.45-.5-1.095-.75-1.935-.75-.68 0-1.235.165-1.665.495-.43.33-.695.775-.795 1.335-.02.18-.13.27-.33.27l-2.43-.15a.318.318 0 0 1-.21-.075c-.06-.05-.08-.115-.06-.195.12-1.24.685-2.245 1.695-3.015s2.265-1.155 3.765-1.155zm-.63 13.29c.88 0 1.645-.25 2.295-.75.65-.5.975-1.17.975-2.01V45.1c0-.08-.04-.12-.12-.12h-2.31c-1 0-1.795.22-2.385.66-.59.44-.885 1.08-.885 1.92 0 .74.225 1.295.675 1.665.45.37 1.035.555 1.755.555zm15.75-13.2c.6 0 1.1.11 1.5.33.14.08.19.21.15.39l-.45 2.28c-.02.18-.14.24-.36.18-.26-.12-.6-.18-1.02-.18-.2 0-.36.01-.48.03-.78.06-1.425.4-1.935 1.02s-.765 1.39-.765 2.31v8.76c0 .2-.1.3-.3.3h-2.28c-.2 0-.3-.1-.3-.3V37.03c0-.2.1-.3.3-.3h2.28c.2 0 .3.1.3.3v1.65c0 .06.015.095.045.105.03.01.055-.005.075-.045.74-1.44 1.82-2.16 3.24-2.16zm9.3 13.17c.68 0 1.265-.175 1.755-.525.49-.35.855-.815 1.095-1.395.06-.18.18-.24.36-.18l1.83.51c.2.06.27.19.21.39-.34 1.14-.975 2.04-1.905 2.7-.93.66-2.095.99-3.495.99-1.48 0-2.695-.375-3.645-1.125-.95-.75-1.535-1.775-1.755-3.075-.26-1.06-.39-2.3-.39-3.72 0-1.36.05-2.43.15-3.21.18-1.4.765-2.52 1.755-3.36.99-.84 2.255-1.26 3.795-1.26 1.74 0 3.09.465 4.05 1.395.96.93 1.51 2.215 1.65 3.855.08.96.12 2.1.12 3.42 0 .2-.1.3-.3.3h-8.25c-.08 0-.12.04-.12.12.04.78.08 1.33.12 1.65.1.76.42 1.37.96 1.83.54.46 1.21.69 2.01.69zm-.24-10.77c-.74 0-1.35.22-1.83.66-.48.44-.77 1.02-.87 1.74-.08.64-.12 1.19-.12 1.65 0 .08.04.12.12.12h5.52c.08 0 .12-.04.12-.12-.04-.72-.08-1.23-.12-1.53-.1-.76-.4-1.37-.9-1.83-.5-.46-1.14-.69-1.92-.69zm27.27-5.79c0 .2-.1.3-.3.3h-8.67c-.08 0-.12.04-.12.12v6.48c0 .08.04.12.12.12h5.7c.2 0 .3.1.3.3v1.89c0 .2-.1.3-.3.3h-5.7c-.08 0-.12.04-.12.12v8.88c0 .2-.1.3-.3.3h-2.28c-.2 0-.3-.1-.3-.3V31.3c0-.2.1-.3.3-.3h11.37c.2 0 .3.1.3.3v1.89zm6.72 19.05c-1.52 0-2.785-.4-3.795-1.2-1.01-.8-1.625-1.9-1.845-3.3-.18-1.16-.27-2.29-.27-3.39 0-1.24.08-2.36.24-3.36.22-1.38.835-2.475 1.845-3.285s2.285-1.215 3.825-1.215c1.5 0 2.745.405 3.735 1.215.99.81 1.605 1.895 1.845 3.255.18 1.18.27 2.3.27 3.36 0 1.1-.09 2.24-.27 3.42-.24 1.4-.855 2.5-1.845 3.3-.99.8-2.235 1.2-3.735 1.2zm0-2.49c.72 0 1.33-.23 1.83-.69.5-.46.81-1.07.93-1.83.12-.84.18-1.8.18-2.88 0-1-.05-1.95-.15-2.85-.12-.76-.435-1.37-.945-1.83-.51-.46-1.135-.69-1.875-.69s-1.365.23-1.875.69c-.51.46-.825 1.07-.945 1.83-.1.9-.15 1.85-.15 2.85 0 1.02.05 1.98.15 2.88.12.76.435 1.37.945 1.83.51.46 1.145.69 1.905.69zm15.39-13.17c.6 0 1.1.11 1.5.33.14.08.19.21.15.39l-.45 2.28c-.02.18-.14.24-.36.18-.26-.12-.6-.18-1.02-.18-.2 0-.36.01-.48.03-.78.06-1.425.4-1.935 1.02s-.765 1.39-.765 2.31v8.76c0 .2-.1.3-.3.3h-2.28c-.2 0-.3-.1-.3-.3V37.03c0-.2.1-.3.3-.3h2.28c.2 0 .3.1.3.3v1.65c0 .06.015.095.045.105.03.01.055-.005.075-.045.74-1.44 1.82-2.16 3.24-2.16zm18.24-.06c1.4 0 2.485.45 3.255 1.35.77.9 1.155 2.15 1.155 3.75V51.7c0 .2-.1.3-.3.3h-2.25c-.2 0-.3-.1-.3-.3v-9.66c0-.94-.225-1.68-.675-2.22-.45-.54-1.065-.81-1.845-.81s-1.405.265-1.875.795-.705 1.255-.705 2.175v9.72c0 .2-.1.3-.3.3h-2.25c-.2 0-.3-.1-.3-.3v-9.66c0-.94-.23-1.68-.69-2.22-.46-.54-1.07-.81-1.83-.81-.78 0-1.405.265-1.875.795s-.705 1.255-.705 2.175v9.72c0 .2-.1.3-.3.3h-2.25c-.2 0-.3-.1-.3-.3V37.03c0-.2.1-.3.3-.3h2.25c.2 0 .3.1.3.3v.9c0 .04.015.07.045.09.03.02.065.01.105-.03.82-.98 1.96-1.47 3.42-1.47.88 0 1.64.18 2.28.54.64.36 1.13.89 1.47 1.59.06.08.12.07.18-.03.44-.72 1.015-1.25 1.725-1.59.71-.34 1.465-.51 2.265-.51zM231.66 52c-.18 0-.29-.09-.33-.27l-5.37-20.4-.03-.09c0-.16.1-.24.3-.24h2.46c.2 0 .31.09.33.27l3.9 16.08c.02.06.04.09.06.09.02 0 .04-.03.06-.09l3.9-16.08c.04-.18.15-.27.33-.27h2.37c.1 0 .175.03.225.09.05.06.065.14.045.24l-5.43 20.4c-.04.18-.15.27-.33.27h-2.49zm15.18-15.51c1.66 0 2.995.465 4.005 1.395 1.01.93 1.515 2.145 1.515 3.645V51.7c0 .2-.1.3-.3.3h-2.28c-.2 0-.3-.1-.3-.3v-.87c0-.1-.05-.12-.15-.06-.92.98-2.19 1.47-3.81 1.47-1.28 0-2.375-.35-3.285-1.05-.91-.7-1.365-1.85-1.365-3.45 0-1.64.53-2.885 1.59-3.735 1.06-.85 2.51-1.275 4.35-1.275h2.55c.08 0 .12-.04.12-.12v-.84c0-.86-.225-1.54-.675-2.04-.45-.5-1.095-.75-1.935-.75-.68 0-1.235.165-1.665.495-.43.33-.695.775-.795 1.335-.02.18-.13.27-.33.27l-2.43-.15a.318.318 0 0 1-.21-.075c-.06-.05-.08-.115-.06-.195.12-1.24.685-2.245 1.695-3.015s2.265-1.155 3.765-1.155zm-.63 13.29c.88 0 1.645-.25 2.295-.75.65-.5.975-1.17.975-2.01V45.1c0-.08-.04-.12-.12-.12h-2.31c-1 0-1.795.22-2.385.66-.59.44-.885 1.08-.885 1.92 0 .74.225 1.295.675 1.665.45.37 1.035.555 1.755.555zm9.75 2.22c-.2 0-.3-.1-.3-.3V31.3c0-.2.1-.3.3-.3h2.28c.2 0 .3.1.3.3v20.4c0 .2-.1.3-.3.3h-2.28zm7.86-17.55c-.56 0-1.02-.175-1.38-.525-.36-.35-.54-.805-.54-1.365 0-.56.18-1.015.54-1.365.36-.35.82-.525 1.38-.525.56 0 1.015.175 1.365.525.35.35.525.805.525 1.365 0 .56-.175 1.015-.525 1.365-.35.35-.805.525-1.365.525zM262.68 52c-.2 0-.3-.1-.3-.3V37.03c0-.2.1-.3.3-.3h2.28c.2 0 .3.1.3.3V51.7c0 .2-.1.3-.3.3h-2.28zm14.52-20.7c0-.2.1-.3.3-.3h2.28c.2 0 .3.1.3.3v20.4c0 .2-.1.3-.3.3h-2.28c-.2 0-.3-.1-.3-.3v-.99c0-.04-.02-.07-.06-.09-.04-.02-.07-.01-.09.03-.76 1.06-1.88 1.59-3.36 1.59-1.26 0-2.27-.365-3.03-1.095-.76-.73-1.31-1.835-1.65-3.315-.24-1.04-.36-2.19-.36-3.45 0-1.26.1-2.39.3-3.39.58-3 2.2-4.5 4.86-4.5 1.46 0 2.54.51 3.24 1.53.02.06.05.085.09.075.04-.01.06-.045.06-.105V31.3zm-.36 16.38c.24-.8.36-1.91.36-3.33 0-1.44-.13-2.56-.39-3.36-.4-1.34-1.18-2.01-2.34-2.01-.6 0-1.11.175-1.53.525-.42.35-.73.825-.93 1.425-.3.84-.45 1.98-.45 3.42 0 1.4.12 2.5.36 3.3.4 1.4 1.24 2.1 2.52 2.1 1.2 0 2-.69 2.4-2.07zm12.15-11.19c1.66 0 2.995.465 4.005 1.395 1.01.93 1.515 2.145 1.515 3.645V51.7c0 .2-.1.3-.3.3h-2.28c-.2 0-.3-.1-.3-.3v-.87c0-.1-.05-.12-.15-.06-.92.98-2.19 1.47-3.81 1.47-1.28 0-2.375-.35-3.285-1.05-.91-.7-1.365-1.85-1.365-3.45 0-1.64.53-2.885 1.59-3.735 1.06-.85 2.51-1.275 4.35-1.275h2.55c.08 0 .12-.04.12-.12v-.84c0-.86-.225-1.54-.675-2.04-.45-.5-1.095-.75-1.935-.75-.68 0-1.235.165-1.665.495-.43.33-.695.775-.795 1.335-.02.18-.13.27-.33.27l-2.43-.15a.318.318 0 0 1-.21-.075c-.06-.05-.08-.115-.06-.195.12-1.24.685-2.245 1.695-3.015s2.265-1.155 3.765-1.155zm-.63 13.29c.88 0 1.645-.25 2.295-.75.65-.5.975-1.17.975-2.01V45.1c0-.08-.04-.12-.12-.12h-2.31c-1 0-1.795.22-2.385.66-.59.44-.885 1.08-.885 1.92 0 .74.225 1.295.675 1.665.45.37 1.035.555 1.755.555zm16.17-11.13c0 .2-.1.3-.3.3h-2.67c-.08 0-.12.04-.12.12v8.16c0 .82.165 1.4.495 1.74.33.34.845.51 1.545.51h.57c.2 0 .3.1.3.3v1.89c0 .2-.1.3-.3.3l-1.17.03c-1.4 0-2.455-.265-3.165-.795s-1.065-1.515-1.065-2.955v-9.18c0-.08-.04-.12-.12-.12h-1.47c-.2 0-.3-.1-.3-.3v-1.62c0-.2.1-.3.3-.3h1.47c.08 0 .12-.04.12-.12v-3.45c0-.2.1-.3.3-.3h2.19c.2 0 .3.1.3.3v3.45c0 .08.04.12.12.12h2.67c.2 0 .3.1.3.3v1.62zm4.56-4.2c-.56 0-1.02-.175-1.38-.525-.36-.35-.54-.805-.54-1.365 0-.56.18-1.015.54-1.365.36-.35.82-.525 1.38-.525.56 0 1.015.175 1.365.525.35.35.525.805.525 1.365 0 .56-.175 1.015-.525 1.365-.35.35-.805.525-1.365.525zM307.95 52c-.2 0-.3-.1-.3-.3V37.03c0-.2.1-.3.3-.3h2.28c.2 0 .3.1.3.3V51.7c0 .2-.1.3-.3.3h-2.28zm11.97.24c-1.52 0-2.785-.4-3.795-1.2-1.01-.8-1.625-1.9-1.845-3.3-.18-1.16-.27-2.29-.27-3.39 0-1.24.08-2.36.24-3.36.22-1.38.835-2.475 1.845-3.285s2.285-1.215 3.825-1.215c1.5 0 2.745.405 3.735 1.215.99.81 1.605 1.895 1.845 3.255.18 1.18.27 2.3.27 3.36 0 1.1-.09 2.24-.27 3.42-.24 1.4-.855 2.5-1.845 3.3-.99.8-2.235 1.2-3.735 1.2zm0-2.49c.72 0 1.33-.23 1.83-.69.5-.46.81-1.07.93-1.83.12-.84.18-1.8.18-2.88 0-1-.05-1.95-.15-2.85-.12-.76-.435-1.37-.945-1.83-.51-.46-1.135-.69-1.875-.69s-1.365.23-1.875.69c-.51.46-.825 1.07-.945 1.83-.1.9-.15 1.85-.15 2.85 0 1.02.05 1.98.15 2.88.12.76.435 1.37.945 1.83.51.46 1.145.69 1.905.69zm15.6-13.23c1.44 0 2.57.45 3.39 1.35.82.9 1.23 2.14 1.23 3.72V51.7c0 .2-.1.3-.3.3h-2.28c-.2 0-.3-.1-.3-.3v-9.69c0-.92-.235-1.65-.705-2.19s-1.105-.81-1.905-.81c-.82 0-1.475.275-1.965.825-.49.55-.735 1.285-.735 2.205v9.66c0 .2-.1.3-.3.3h-2.28c-.2 0-.3-.1-.3-.3V37.03c0-.2.1-.3.3-.3h2.28c.2 0 .3.1.3.3v.93c0 .06.015.095.045.105.03.01.065-.015.105-.075.78-.98 1.92-1.47 3.42-1.47zM352.68 52c-.18 0-.29-.09-.33-.27l-3.75-14.67-.03-.12c0-.14.09-.21.27-.21h2.28c.2 0 .31.09.33.27l2.34 10.83c.02.06.04.09.06.09.02 0 .04-.03.06-.09L356.34 37c.04-.18.15-.27.33-.27h2.04c.18 0 .29.09.33.27l2.46 10.83c.02.06.04.09.06.09.02 0 .04-.03.06-.09L364.05 37c.04-.18.15-.27.33-.27l2.25.03c.1 0 .175.03.225.09.05.06.055.14.015.24l-3.78 14.64c-.02.18-.13.27-.33.27h-2.28c-.18 0-.29-.09-.33-.27l-2.43-9.99c-.02-.06-.04-.09-.06-.09-.02 0-.04.03-.06.09l-2.34 9.99c-.04.18-.15.27-.33.27h-2.25zm18.42-17.55c-.56 0-1.02-.175-1.38-.525-.36-.35-.54-.805-.54-1.365 0-.56.18-1.015.54-1.365.36-.35.82-.525 1.38-.525.56 0 1.015.175 1.365.525.35.35.525.805.525 1.365 0 .56-.175 1.015-.525 1.365-.35.35-.805.525-1.365.525zM369.96 52c-.2 0-.3-.1-.3-.3V37.03c0-.2.1-.3.3-.3h2.28c.2 0 .3.1.3.3V51.7c0 .2-.1.3-.3.3h-2.28zm13.17-13.35c0 .2-.1.3-.3.3h-2.67c-.08 0-.12.04-.12.12v8.16c0 .82.165 1.4.495 1.74.33.34.845.51 1.545.51h.57c.2 0 .3.1.3.3v1.89c0 .2-.1.3-.3.3l-1.17.03c-1.4 0-2.455-.265-3.165-.795s-1.065-1.515-1.065-2.955v-9.18c0-.08-.04-.12-.12-.12h-1.47c-.2 0-.3-.1-.3-.3v-1.62c0-.2.1-.3.3-.3h1.47c.08 0 .12-.04.12-.12v-3.45c0-.2.1-.3.3-.3h2.19c.2 0 .3.1.3.3v3.45c0 .08.04.12.12.12h2.67c.2 0 .3.1.3.3v1.62zm9.36-2.13c1.44 0 2.57.45 3.39 1.35.82.9 1.23 2.14 1.23 3.72V51.7c0 .2-.1.3-.3.3h-2.28c-.2 0-.3-.1-.3-.3v-9.69c0-.92-.235-1.65-.705-2.19s-1.105-.81-1.905-.81c-.82 0-1.475.275-1.965.825-.49.55-.735 1.285-.735 2.205v9.66c0 .2-.1.3-.3.3h-2.28c-.2 0-.3-.1-.3-.3V31.3c0-.2.1-.3.3-.3h2.28c.2 0 .3.1.3.3v6.66c0 .06.015.095.045.105.03.01.065-.015.105-.075.78-.98 1.92-1.47 3.42-1.47zM417.75 52c-.18 0-.29-.09-.33-.27l-.87-3.48c0-.06-.05-.09-.15-.09h-6.63c-.08 0-.13.03-.15.09l-.9 3.48c-.02.18-.13.27-.33.27h-2.34c-.1 0-.175-.03-.225-.09-.05-.06-.065-.14-.045-.24l5.55-20.4c.04-.18.15-.27.33-.27h2.82c.18 0 .29.09.33.27l5.58 20.4.03.09c0 .16-.1.24-.3.24h-2.37zm-7.5-6.24c-.02.02-.015.045.015.075s.065.045.105.045h5.4c.04 0 .075-.015.105-.045s.035-.055.015-.075l-2.73-10.8c-.02-.04-.04-.06-.06-.06-.02 0-.04.02-.06.06l-2.79 10.8zm19.35-9.24c1.44 0 2.57.45 3.39 1.35.82.9 1.23 2.14 1.23 3.72V51.7c0 .2-.1.3-.3.3h-2.28c-.2 0-.3-.1-.3-.3v-9.69c0-.92-.235-1.65-.705-2.19s-1.105-.81-1.905-.81c-.82 0-1.475.275-1.965.825-.49.55-.735 1.285-.735 2.205v9.66c0 .2-.1.3-.3.3h-2.28c-.2 0-.3-.1-.3-.3V37.03c0-.2.1-.3.3-.3h2.28c.2 0 .3.1.3.3v.93c0 .06.015.095.045.105.03.01.065-.015.105-.075.78-.98 1.92-1.47 3.42-1.47zm16.29.51c0-.2.1-.3.3-.3h2.28c.2 0 .3.1.3.3V51.4c0 4.44-2.38 6.66-7.14 6.66-.42 0-.74-.01-.96-.03-.2-.02-.3-.13-.3-.33l.06-2.01c0-.1.03-.175.09-.225.06-.05.13-.065.21-.045 1.88.08 3.21-.21 3.99-.87.78-.66 1.17-1.78 1.17-3.36v-.57c0-.04-.015-.07-.045-.09-.03-.02-.065-.01-.105.03-.78.96-1.87 1.44-3.27 1.44-1.3 0-2.395-.385-3.285-1.155-.89-.77-1.435-1.845-1.635-3.225-.12-.64-.18-1.73-.18-3.27 0-1.66.07-2.82.21-3.48.18-1.34.695-2.405 1.545-3.195s1.925-1.185 3.225-1.185c1.44 0 2.57.47 3.39 1.41.04.04.075.05.105.03.03-.02.045-.05.045-.09v-.81zm-.06 10.08c.04-1.04.06-1.97.06-2.79 0-1.12-.03-2.07-.09-2.85-.08-.72-.36-1.315-.84-1.785s-1.09-.705-1.83-.705c-.72 0-1.325.235-1.815.705s-.785 1.065-.885 1.785c-.12.78-.18 1.73-.18 2.85 0 1.04.05 1.96.15 2.76.1.74.4 1.34.9 1.8.5.46 1.12.69 1.86.69s1.35-.23 1.83-.69c.48-.46.76-1.05.84-1.77zm14.43-10.08c0-.2.1-.3.3-.3h2.28c.2 0 .3.1.3.3V51.7c0 .2-.1.3-.3.3h-2.28c-.2 0-.3-.1-.3-.3v-.93c0-.04-.015-.07-.045-.09-.03-.02-.065-.01-.105.03-.7 1-1.8 1.5-3.3 1.5-1.36 0-2.485-.4-3.375-1.2-.89-.8-1.335-1.96-1.335-3.48v-10.5c0-.2.1-.3.3-.3h2.25c.2 0 .3.1.3.3v9.72c0 .94.225 1.67.675 2.19.45.52 1.095.78 1.935.78.82 0 1.475-.275 1.965-.825.49-.55.735-1.295.735-2.235v-9.63zM467.04 52c-.2 0-.3-.1-.3-.3V31.3c0-.2.1-.3.3-.3h2.28c.2 0 .3.1.3.3v20.4c0 .2-.1.3-.3.3h-2.28zm11.43-15.51c1.66 0 2.995.465 4.005 1.395 1.01.93 1.515 2.145 1.515 3.645V51.7c0 .2-.1.3-.3.3h-2.28c-.2 0-.3-.1-.3-.3v-.87c0-.1-.05-.12-.15-.06-.92.98-2.19 1.47-3.81 1.47-1.28 0-2.375-.35-3.285-1.05-.91-.7-1.365-1.85-1.365-3.45 0-1.64.53-2.885 1.59-3.735 1.06-.85 2.51-1.275 4.35-1.275h2.55c.08 0 .12-.04.12-.12v-.84c0-.86-.225-1.54-.675-2.04-.45-.5-1.095-.75-1.935-.75-.68 0-1.235.165-1.665.495-.43.33-.695.775-.795 1.335-.02.18-.13.27-.33.27l-2.43-.15a.318.318 0 0 1-.21-.075c-.06-.05-.08-.115-.06-.195.12-1.24.685-2.245 1.695-3.015s2.265-1.155 3.765-1.155zm-.63 13.29c.88 0 1.645-.25 2.295-.75.65-.5.975-1.17.975-2.01V45.1c0-.08-.04-.12-.12-.12h-2.31c-1 0-1.795.22-2.385.66-.59.44-.885 1.08-.885 1.92 0 .74.225 1.295.675 1.665.45.37 1.035.555 1.755.555zm15.75-13.2c.6 0 1.1.11 1.5.33.14.08.19.21.15.39l-.45 2.28c-.02.18-.14.24-.36.18-.26-.12-.6-.18-1.02-.18-.2 0-.36.01-.48.03-.78.06-1.425.4-1.935 1.02s-.765 1.39-.765 2.31v8.76c0 .2-.1.3-.3.3h-2.28c-.2 0-.3-.1-.3-.3V37.03c0-.2.1-.3.3-.3h2.28c.2 0 .3.1.3.3v1.65c0 .06.015.095.045.105.03.01.055-.005.075-.045.74-1.44 1.82-2.16 3.24-2.16zm15.12-.09c1.66 0 2.995.465 4.005 1.395 1.01.93 1.515 2.145 1.515 3.645V51.7c0 .2-.1.3-.3.3h-2.28c-.2 0-.3-.1-.3-.3v-.87c0-.1-.05-.12-.15-.06-.92.98-2.19 1.47-3.81 1.47-1.28 0-2.375-.35-3.285-1.05-.91-.7-1.365-1.85-1.365-3.45 0-1.64.53-2.885 1.59-3.735 1.06-.85 2.51-1.275 4.35-1.275h2.55c.08 0 .12-.04.12-.12v-.84c0-.86-.225-1.54-.675-2.04-.45-.5-1.095-.75-1.935-.75-.68 0-1.235.165-1.665.495-.43.33-.695.775-.795 1.335-.02.18-.13.27-.33.27l-2.43-.15a.318.318 0 0 1-.21-.075c-.06-.05-.08-.115-.06-.195.12-1.24.685-2.245 1.695-3.015s2.265-1.155 3.765-1.155zm-.63 13.29c.88 0 1.645-.25 2.295-.75.65-.5.975-1.17.975-2.01V45.1c0-.08-.04-.12-.12-.12h-2.31c-1 0-1.795.22-2.385.66-.59.44-.885 1.08-.885 1.92 0 .74.225 1.295.675 1.665.45.37 1.035.555 1.755.555zm15.96-13.26c1.44 0 2.57.45 3.39 1.35.82.9 1.23 2.14 1.23 3.72V51.7c0 .2-.1.3-.3.3h-2.28c-.2 0-.3-.1-.3-.3v-9.69c0-.92-.235-1.65-.705-2.19s-1.105-.81-1.905-.81c-.82 0-1.475.275-1.965.825-.49.55-.735 1.285-.735 2.205v9.66c0 .2-.1.3-.3.3h-2.28c-.2 0-.3-.1-.3-.3V37.03c0-.2.1-.3.3-.3h2.28c.2 0 .3.1.3.3v.93c0 .06.015.095.045.105.03.01.065-.015.105-.075.78-.98 1.92-1.47 3.42-1.47zm16.26-5.22c0-.2.1-.3.3-.3h2.28c.2 0 .3.1.3.3v20.4c0 .2-.1.3-.3.3h-2.28c-.2 0-.3-.1-.3-.3v-.99c0-.04-.02-.07-.06-.09-.04-.02-.07-.01-.09.03-.76 1.06-1.88 1.59-3.36 1.59-1.26 0-2.27-.365-3.03-1.095-.76-.73-1.31-1.835-1.65-3.315-.24-1.04-.36-2.19-.36-3.45 0-1.26.1-2.39.3-3.39.58-3 2.2-4.5 4.86-4.5 1.46 0 2.54.51 3.24 1.53.02.06.05.085.09.075.04-.01.06-.045.06-.105V31.3zm-.36 16.38c.24-.8.36-1.91.36-3.33 0-1.44-.13-2.56-.39-3.36-.4-1.34-1.18-2.01-2.34-2.01-.6 0-1.11.175-1.53.525-.42.35-.73.825-.93 1.425-.3.84-.45 1.98-.45 3.42 0 1.4.12 2.5.36 3.3.4 1.4 1.24 2.1 2.52 2.1 1.2 0 2-.69 2.4-2.07zm25.26-14.49c0 .2-.1.3-.3.3h-8.7c-.08 0-.12.04-.12.12v6.48c0 .08.04.12.12.12h5.73c.2 0 .3.1.3.3v1.89c0 .2-.1.3-.3.3h-5.73c-.08 0-.12.04-.12.12v6.57c0 .08.04.12.12.12h8.7c.2 0 .3.1.3.3v1.89c0 .2-.1.3-.3.3h-11.4c-.2 0-.3-.1-.3-.3V31.3c0-.2.1-.3.3-.3h11.4c.2 0 .3.1.3.3v1.89zM567.42 52c-.12 0-.2-.035-.24-.105-.04-.07-.03-.155.03-.255l4.26-7.17a.15.15 0 0 0 0-.18l-4.26-7.2a.46.46 0 0 1-.06-.18c0-.12.09-.18.27-.18h2.46c.14 0 .26.07.36.21l2.85 4.89c.02.02.05.03.09.03.04 0 .07-.01.09-.03l2.85-4.89c.1-.14.22-.21.36-.21h2.55c.12 0 .2.035.24.105.04.07.03.155-.03.255l-4.26 7.2c-.02.06-.02.12 0 .18l4.26 7.17c.04.08.06.14.06.18 0 .12-.09.18-.27.18h-2.46c-.14 0-.26-.07-.36-.21l-2.85-4.92c-.02-.04-.05-.06-.09-.06-.04 0-.07.02-.09.06l-2.85 4.92c-.1.14-.22.21-.36.21h-2.55zm25.62-11.1c.24 1.04.36 2.19.36 3.45 0 1.26-.1 2.39-.3 3.39-.58 3-2.2 4.5-4.86 4.5-1.46 0-2.54-.51-3.24-1.53-.02-.06-.05-.085-.09-.075-.04.01-.06.045-.06.105v6.69c0 .2-.1.3-.3.3h-2.28c-.2 0-.3-.1-.3-.3v-20.4c0-.2.1-.3.3-.3h2.28c.2 0 .3.1.3.3v.99c0 .04.02.07.06.09.04.02.07.01.09-.03.76-1.06 1.88-1.59 3.36-1.59 1.26 0 2.27.365 3.03 1.095.76.73 1.31 1.835 1.65 3.315zm-3 6.9c.3-.84.45-1.98.45-3.42 0-1.4-.12-2.5-.36-3.3-.4-1.4-1.24-2.1-2.52-2.1-1.2 0-2 .69-2.4 2.07-.24.8-.36 1.91-.36 3.33 0 1.44.13 2.56.39 3.36.4 1.34 1.18 2.01 2.34 2.01.6 0 1.11-.175 1.53-.525.42-.35.73-.825.93-1.425zm12.81-11.22c.6 0 1.1.11 1.5.33.14.08.19.21.15.39l-.45 2.28c-.02.18-.14.24-.36.18-.26-.12-.6-.18-1.02-.18-.2 0-.36.01-.48.03-.78.06-1.425.4-1.935 1.02s-.765 1.39-.765 2.31v8.76c0 .2-.1.3-.3.3h-2.28c-.2 0-.3-.1-.3-.3V37.03c0-.2.1-.3.3-.3h2.28c.2 0 .3.1.3.3v1.65c0 .06.015.095.045.105.03.01.055-.005.075-.045.74-1.44 1.82-2.16 3.24-2.16zm9.3 13.17c.68 0 1.265-.175 1.755-.525.49-.35.855-.815 1.095-1.395.06-.18.18-.24.36-.18l1.83.51c.2.06.27.19.21.39-.34 1.14-.975 2.04-1.905 2.7-.93.66-2.095.99-3.495.99-1.48 0-2.695-.375-3.645-1.125-.95-.75-1.535-1.775-1.755-3.075-.26-1.06-.39-2.3-.39-3.72 0-1.36.05-2.43.15-3.21.18-1.4.765-2.52 1.755-3.36.99-.84 2.255-1.26 3.795-1.26 1.74 0 3.09.465 4.05 1.395.96.93 1.51 2.215 1.65 3.855.08.96.12 2.1.12 3.42 0 .2-.1.3-.3.3h-8.25c-.08 0-.12.04-.12.12.04.78.08 1.33.12 1.65.1.76.42 1.37.96 1.83.54.46 1.21.69 2.01.69zm-.24-10.77c-.74 0-1.35.22-1.83.66-.48.44-.77 1.02-.87 1.74-.08.64-.12 1.19-.12 1.65 0 .08.04.12.12.12h5.52c.08 0 .12-.04.12-.12-.04-.72-.08-1.23-.12-1.53-.1-.76-.4-1.37-.9-1.83-.5-.46-1.14-.69-1.92-.69zm13.83 13.2c-1.64 0-2.955-.38-3.945-1.14-.99-.76-1.485-1.74-1.485-2.94v-.3c0-.2.1-.3.3-.3h2.16c.2 0 .3.08.3.24v.24c0 .56.255 1.035.765 1.425.51.39 1.155.585 1.935.585.76 0 1.37-.19 1.83-.57.46-.38.69-.85.69-1.41 0-.44-.135-.8-.405-1.08s-.6-.505-.99-.675c-.39-.17-.965-.385-1.725-.645-.94-.3-1.735-.615-2.385-.945-.65-.33-1.205-.8-1.665-1.41-.46-.61-.69-1.385-.69-2.325 0-1.34.475-2.4 1.425-3.18.95-.78 2.215-1.17 3.795-1.17 1.62 0 2.915.4 3.885 1.2.97.8 1.455 1.85 1.455 3.15v.06c0 .2-.1.3-.3.3h-2.1c-.2 0-.3-.07-.3-.21v-.21c0-.58-.24-1.06-.72-1.44-.48-.38-1.11-.57-1.89-.57-.74 0-1.34.18-1.8.54-.46.36-.69.82-.69 1.38 0 .42.13.765.39 1.035.26.27.585.495.975.675.39.18.965.4 1.725.66 1 .34 1.825.67 2.475.99.65.32 1.215.78 1.695 1.38.48.6.72 1.37.72 2.31 0 1.34-.49 2.4-1.47 3.18-.98.78-2.3 1.17-3.96 1.17zm12.63 0c-1.64 0-2.955-.38-3.945-1.14-.99-.76-1.485-1.74-1.485-2.94v-.3c0-.2.1-.3.3-.3h2.16c.2 0 .3.08.3.24v.24c0 .56.255 1.035.765 1.425.51.39 1.155.585 1.935.585.76 0 1.37-.19 1.83-.57.46-.38.69-.85.69-1.41 0-.44-.135-.8-.405-1.08s-.6-.505-.99-.675c-.39-.17-.965-.385-1.725-.645-.94-.3-1.735-.615-2.385-.945-.65-.33-1.205-.8-1.665-1.41-.46-.61-.69-1.385-.69-2.325 0-1.34.475-2.4 1.425-3.18.95-.78 2.215-1.17 3.795-1.17 1.62 0 2.915.4 3.885 1.2.97.8 1.455 1.85 1.455 3.15v.06c0 .2-.1.3-.3.3h-2.1c-.2 0-.3-.07-.3-.21v-.21c0-.58-.24-1.06-.72-1.44-.48-.38-1.11-.57-1.89-.57-.74 0-1.34.18-1.8.54-.46.36-.69.82-.69 1.38 0 .42.13.765.39 1.035.26.27.585.495.975.675.39.18.965.4 1.725.66 1 .34 1.825.67 2.475.99.65.32 1.215.78 1.695 1.38.48.6.72 1.37.72 2.31 0 1.34-.49 2.4-1.47 3.18-.98.78-2.3 1.17-3.96 1.17zM36.06 80.96c1.027 0 1.857.35 2.49 1.05.633.7.95 1.623.95 2.77 0 1.133-.317 2.04-.95 2.72-.633.68-1.463 1.02-2.49 1.02h-3.18c-.053 0-.08.027-.08.08v6.2c0 .133-.067.2-.2.2h-.66c-.133 0-.2-.067-.2-.2V81.16c0-.133.067-.2.2-.2h4.12zm-.1 6.68c.747 0 1.35-.26 1.81-.78.46-.52.69-1.207.69-2.06 0-.88-.23-1.58-.69-2.1-.46-.52-1.063-.78-1.81-.78h-3.08c-.053 0-.08.027-.08.08v5.56c0 .053.027.08.08.08h3.08zm9.3-2.8c.413 0 .753.073 1.02.22.093.04.127.12.1.24l-.18.68c-.04.133-.127.173-.26.12a1.63 1.63 0 0 0-.66-.14l-.24.02c-.627.013-1.147.287-1.56.82-.413.533-.62 1.187-.62 1.96v6.04c0 .133-.067.2-.2.2H42c-.133 0-.2-.067-.2-.2v-9.68c0-.133.067-.2.2-.2h.66c.133 0 .2.067.2.2v1.34c0 .04.013.06.04.06.027 0 .047-.02.06-.06.227-.507.537-.903.93-1.19.393-.287.85-.43 1.37-.43zm6.12 10.32c-.92 0-1.683-.26-2.29-.78s-.97-1.213-1.09-2.08c-.08-.68-.12-1.46-.12-2.34 0-.907.04-1.687.12-2.34.107-.853.467-1.543 1.08-2.07.613-.527 1.38-.79 2.3-.79.907 0 1.667.26 2.28.78.613.52.973 1.207 1.08 2.06.08.56.12 1.347.12 2.36s-.04 1.793-.12 2.34c-.107.867-.463 1.56-1.07 2.08s-1.37.78-2.29.78zm0-.94c.64 0 1.173-.193 1.6-.58.427-.387.673-.9.74-1.54.04-.387.06-1.1.06-2.14s-.02-1.753-.06-2.14c-.067-.64-.317-1.153-.75-1.54s-.97-.58-1.61-.58c-.64 0-1.173.193-1.6.58-.427.387-.673.9-.74 1.54-.04.387-.06 1.1-.06 2.14s.02 1.753.06 2.14c.067.64.317 1.153.75 1.54s.97.58 1.61.58zm9.46.94c-.92 0-1.683-.26-2.29-.78s-.97-1.213-1.09-2.08c-.08-.68-.12-1.46-.12-2.34 0-.907.04-1.687.12-2.34.107-.853.467-1.543 1.08-2.07.613-.527 1.38-.79 2.3-.79.907 0 1.667.26 2.28.78.613.52.973 1.207 1.08 2.06.08.56.12 1.347.12 2.36s-.04 1.793-.12 2.34c-.107.867-.463 1.56-1.07 2.08s-1.37.78-2.29.78zm0-.94c.64 0 1.173-.193 1.6-.58.427-.387.673-.9.74-1.54.04-.387.06-1.1.06-2.14s-.02-1.753-.06-2.14c-.067-.64-.317-1.153-.75-1.54s-.97-.58-1.61-.58c-.64 0-1.173.193-1.6.58-.427.387-.673.9-.74 1.54-.04.387-.06 1.1-.06 2.14s.02 1.753.06 2.14c.067.64.317 1.153.75 1.54s.97.58 1.61.58zm9.52-12.36c-.68 0-1.143.187-1.39.56-.247.373-.37.973-.37 1.8v.62c0 .053.027.08.08.08h1.98c.133 0 .2.067.2.2v.5c0 .133-.067.2-.2.2h-1.98c-.053 0-.08.027-.08.08v8.9c0 .133-.067.2-.2.2h-.66c-.133 0-.2-.067-.2-.2v-8.9c0-.053-.027-.08-.08-.08h-1.08c-.133 0-.2-.067-.2-.2v-.5c0-.133.067-.2.2-.2h1.08c.053 0 .08-.027.08-.08v-.66c0-1.133.207-1.96.62-2.48.413-.52 1.133-.78 2.16-.78h.4c.133 0 .2.067.2.2v.54c0 .133-.067.2-.2.2h-.36zm10.1 13.3c-.92 0-1.683-.26-2.29-.78s-.97-1.213-1.09-2.08c-.08-.68-.12-1.46-.12-2.34 0-.907.04-1.687.12-2.34.107-.853.467-1.543 1.08-2.07.613-.527 1.38-.79 2.3-.79.907 0 1.667.26 2.28.78.613.52.973 1.207 1.08 2.06.08.56.12 1.347.12 2.36s-.04 1.793-.12 2.34c-.107.867-.463 1.56-1.07 2.08s-1.37.78-2.29.78zm0-.94c.64 0 1.173-.193 1.6-.58.427-.387.673-.9.74-1.54.04-.387.06-1.1.06-2.14s-.02-1.753-.06-2.14c-.067-.64-.317-1.153-.75-1.54s-.97-.58-1.61-.58c-.64 0-1.173.193-1.6.58-.427.387-.673.9-.74 1.54-.04.387-.06 1.1-.06 2.14s.02 1.753.06 2.14c.067.64.317 1.153.75 1.54s.97.58 1.61.58zm9.52-12.36c-.68 0-1.143.187-1.39.56-.247.373-.37.973-.37 1.8v.62c0 .053.027.08.08.08h1.98c.133 0 .2.067.2.2v.5c0 .133-.067.2-.2.2H88.3c-.053 0-.08.027-.08.08v8.9c0 .133-.067.2-.2.2h-.66c-.133 0-.2-.067-.2-.2v-8.9c0-.053-.027-.08-.08-.08H86c-.133 0-.2-.067-.2-.2v-.5c0-.133.067-.2.2-.2h1.08c.053 0 .08-.027.08-.08v-.66c0-1.133.207-1.96.62-2.48.413-.52 1.133-.78 2.16-.78h.4c.133 0 .2.067.2.2v.54c0 .133-.067.2-.2.2h-.36zm10.66 13.3c-1.173 0-2.117-.35-2.83-1.05-.713-.7-1.07-1.623-1.07-2.77v-6.7c0-1.147.357-2.067 1.07-2.76.713-.693 1.657-1.04 2.83-1.04 1.187 0 2.137.347 2.85 1.04.713.693 1.07 1.607 1.07 2.74v.18c0 .067-.02.12-.06.16a.192.192 0 0 1-.14.06l-.66.04c-.133 0-.2-.067-.2-.2v-.28c0-.84-.263-1.517-.79-2.03-.527-.513-1.217-.77-2.07-.77-.853 0-1.54.257-2.06.77s-.78 1.19-.78 2.03v6.82c0 .853.26 1.537.78 2.05.52.513 1.207.77 2.06.77.867 0 1.56-.257 2.08-.77s.78-1.197.78-2.05v-.24c0-.133.067-.2.2-.2l.66.04c.053 0 .1.017.14.05.04.033.06.077.06.13v.18c0 1.147-.357 2.067-1.07 2.76-.713.693-1.663 1.04-2.85 1.04zm9.78 0c-.92 0-1.683-.26-2.29-.78s-.97-1.213-1.09-2.08c-.08-.68-.12-1.46-.12-2.34 0-.907.04-1.687.12-2.34.107-.853.467-1.543 1.08-2.07.613-.527 1.38-.79 2.3-.79.907 0 1.667.26 2.28.78.613.52.973 1.207 1.08 2.06.08.56.12 1.347.12 2.36s-.04 1.793-.12 2.34c-.107.867-.463 1.56-1.07 2.08s-1.37.78-2.29.78zm0-.94c.64 0 1.173-.193 1.6-.58.427-.387.673-.9.74-1.54.04-.387.06-1.1.06-2.14s-.02-1.753-.06-2.14c-.067-.64-.317-1.153-.75-1.54s-.97-.58-1.61-.58c-.64 0-1.173.193-1.6.58-.427.387-.673.9-.74 1.54-.04.387-.06 1.1-.06 2.14s.02 1.753.06 2.14c.067.64.317 1.153.75 1.54s.97.58 1.61.58zm9.88-9.44c.92 0 1.647.293 2.18.88.533.587.8 1.38.8 2.38v6.76c0 .133-.067.2-.2.2h-.66c-.133 0-.2-.067-.2-.2v-6.6c0-.76-.2-1.363-.6-1.81-.4-.447-.933-.67-1.6-.67-.627 0-1.147.193-1.56.58-.413.387-.653.907-.72 1.56v6.94c0 .133-.067.2-.2.2h-.66c-.133 0-.2-.067-.2-.2v-9.68c0-.133.067-.2.2-.2h.66c.133 0 .2.067.2.2v.86c0 .04.01.063.03.07.02.007.037-.003.05-.03a2.66 2.66 0 0 1 1.04-.92c.427-.213.907-.32 1.44-.32zm9.12 10.38c-.907 0-1.663-.263-2.27-.79s-.963-1.217-1.07-2.07c-.093-.64-.14-1.427-.14-2.36 0-.773.047-1.553.14-2.34.107-.84.463-1.523 1.07-2.05.607-.527 1.363-.79 2.27-.79s1.67.247 2.29.74c.62.493.983 1.107 1.09 1.84l.06.36v.04c0 .093-.06.153-.18.18l-.66.04c-.12 0-.193-.06-.22-.18v-.1c0-.053-.013-.133-.04-.24-.093-.48-.353-.89-.78-1.23-.427-.34-.947-.51-1.56-.51-.64 0-1.17.197-1.59.59-.42.393-.663.903-.73 1.53-.067.627-.1 1.34-.1 2.14 0 .827.033 1.54.1 2.14.067.64.31 1.153.73 1.54s.95.58 1.59.58c.653 0 1.197-.183 1.63-.55.433-.367.677-.81.73-1.33v-.12c.027-.133.1-.193.22-.18l.66.04c.053 0 .097.017.13.05s.05.077.05.13v.08l-.02.16c-.013.013-.02.04-.02.08-.093.747-.45 1.363-1.07 1.85-.62.487-1.39.73-2.31.73zm9.12-.94c.56 0 1.043-.143 1.45-.43.407-.287.69-.67.85-1.15.04-.12.12-.167.24-.14l.54.1c.067.013.11.043.13.09a.23.23 0 0 1 .01.15 2.97 2.97 0 0 1-1.14 1.69c-.573.42-1.28.63-2.12.63-.907 0-1.657-.253-2.25-.76s-.95-1.173-1.07-2c-.093-.56-.14-1.38-.14-2.46s.027-1.847.08-2.3c.107-.853.463-1.547 1.07-2.08.607-.533 1.363-.8 2.27-.8.987 0 1.78.277 2.38.83.6.553.947 1.297 1.04 2.23.04.453.06 1.213.06 2.28 0 .133-.067.2-.2.2h-5.58c-.053 0-.08.027-.08.08 0 .68.02 1.253.06 1.72.067.64.317 1.153.75 1.54s.983.58 1.65.58zm-.08-8.52c-.64 0-1.167.193-1.58.58-.413.387-.653.893-.72 1.52-.027.32-.053.833-.08 1.54 0 .053.027.08.08.08h4.64c.053 0 .08-.027.08-.08 0-.6-.02-1.107-.06-1.52-.067-.627-.313-1.137-.74-1.53s-.967-.59-1.62-.59zm12.96 1.88c.053.333.087.703.1 1.11.013.407.02.823.02 1.25 0 1.107-.033 1.893-.1 2.36-.133.893-.473 1.593-1.02 2.1-.547.507-1.253.76-2.12.76-1.093 0-1.887-.433-2.38-1.3-.027-.027-.05-.037-.07-.03-.02.007-.03.03-.03.07v4.82c0 .133-.067.2-.2.2h-.66c-.133 0-.2-.067-.2-.2v-13.6c0-.133.067-.2.2-.2h.66c.133 0 .2.067.2.2v.92c0 .04.01.06.03.06.02 0 .043-.013.07-.04.24-.413.567-.733.98-.96.413-.227.893-.34 1.44-.34.827 0 1.51.25 2.05.75.54.5.883 1.19 1.03 2.07zm-1.08 4.68c.093-.56.14-1.327.14-2.3 0-1.027-.04-1.78-.12-2.26-.08-.6-.323-1.083-.73-1.45s-.917-.55-1.53-.55c-.6 0-1.09.183-1.47.55-.38.367-.61.85-.69 1.45-.08.573-.12 1.327-.12 2.26 0 .96.047 1.72.14 2.28.08.587.307 1.063.68 1.43.373.367.853.55 1.44.55.613 0 1.12-.18 1.52-.54.4-.36.647-.833.74-1.42zm7.68-6.68c0 .133-.067.2-.2.2h-1.98c-.053 0-.08.027-.08.08v6.38c0 .68.133 1.153.4 1.42.267.267.693.393 1.28.38h.34c.133 0 .2.067.2.2v.54c0 .133-.067.207-.2.22h-.52c-.827 0-1.457-.177-1.89-.53-.433-.353-.65-1.003-.65-1.95v-6.66c0-.053-.027-.08-.08-.08h-1.02c-.133 0-.2-.067-.2-.2v-.46c0-.133.067-.2.2-.2h1.02c.053 0 .08-.027.08-.08v-2.26c0-.133.067-.2.2-.2h.64c.133 0 .2.067.2.2v2.26c0 .053.027.08.08.08h1.98c.133 0 .2.067.2.2v.46z"/>
    </g>
    <g transform="translate(827 28)">
      <mask id="b" fill="#fff">
        <use xlink:href="#a"/>
      </mask>
      <path d="M22.404.042c-1.381 0-2.498 1.075-2.498 2.402 0 1.324 1.117 2.397 2.498 2.397 1.379 0 2.498-1.073 2.498-2.397 0-1.327-1.12-2.402-2.498-2.402M16.925 10.135l3.121-3.945a.59.59 0 0 0 .034-.692l-1.326-2.042a.642.642 0 0 0-.544-.287l-5.722.038-3.137-.002c-.245 0-.355.296-.163.444l.879.681c.123.096.27.16.426.189l5.449.985-6.74 6.954-8.872 1.21c-.307.042-.438.398-.226.616l.866.892a.905.905 0 0 0 .664.271l8.564-.135c.317-.005.627-.091.898-.25l2.052-1.199 4.331 3.3c.17.13.282.318.311.525l.825 5.827a.57.57 0 0 0 .572.48h.441a.566.566 0 0 0 .577-.552l.025-6.467a1.505 1.505 0 0 0-.316-.927l-3.779-4.889.79-1.025" fill="#555" mask="url(#b)"/>
    </g>
    <path d="M864.673 35.492c0-1.155-.954-1.868-2.196-1.868h-3.327v3.778h3.327c1.242 0 2.196-.714 2.196-1.91zm-.31 9.508l-2.906-4.975h-2.307V45H856V31h6.92c3.084 0 4.991 1.91 4.991 4.513 0 2.455-1.663 3.799-3.26 4.156L868 45h-3.638zM871 45V31h11v2.624h-7.691v2.938h7.528v2.624h-7.528v3.19H882V45h-11M892.754 35.513c0-1.176-.963-1.89-2.217-1.89h-3.358v3.758h3.358c1.254 0 2.217-.714 2.217-1.868zM884 45V31h6.985c3.246 0 5.015 2.057 5.015 4.513 0 2.435-1.791 4.492-5.015 4.492h-3.806V45H884zM898 45V31h3.028v11.376H907V45h-9" fill="#555"/>
    <g fill="#555">
      <path d="M910.05 46.156v-6.141l-5.767-8.864h3.65l3.717 6.007 3.718-6.007h3.627l-5.745 8.864v6.141h-3.2M855.14 53.024c0-1.931 1.436-3.234 3.285-3.234 1.258 0 2.047.647 2.506 1.397l-.929.487c-.3-.525-.91-.91-1.577-.91-1.239 0-2.159.938-2.159 2.26 0 1.302.92 2.258 2.16 2.258.666 0 1.276-.393 1.576-.909l.939.469c-.479.75-1.258 1.415-2.516 1.415-1.849 0-3.285-1.312-3.285-3.233M866.817 53.024c0-1.294-.816-2.26-2.074-2.26-1.267 0-2.074.966-2.074 2.26 0 1.284.807 2.258 2.074 2.258 1.258 0 2.074-.974 2.074-2.258zm-5.275 0c0-1.866 1.324-3.234 3.2-3.234 1.869 0 3.202 1.368 3.202 3.234 0 1.865-1.333 3.233-3.201 3.233-1.877 0-3.201-1.368-3.201-3.233zM874.402 56.145v-4.827l-1.915 4.827h-.469l-1.924-4.827v4.827h-1.099v-6.252h1.549l1.709 4.293 1.699-4.293h1.548v6.252h-1.098M876.43 55.264l.62-.853c.422.459 1.107.871 1.98.871.901 0 1.249-.44 1.249-.862 0-1.312-3.642-.497-3.642-2.793 0-1.04.9-1.837 2.28-1.837.967 0 1.765.319 2.338.881l-.62.815c-.497-.496-1.164-.721-1.82-.721-.639 0-1.052.319-1.052.778 0 1.171 3.642.45 3.642 2.774 0 1.04-.741 1.94-2.422 1.94-1.154 0-1.99-.412-2.553-.993M884.099 56.145v-2.597l-2.431-3.655h1.258l1.718 2.671 1.718-2.671h1.257l-2.421 3.655v2.597h-1.099M887.704 55.264l.62-.853c.422.459 1.108.871 1.98.871.901 0 1.249-.44 1.249-.862 0-1.312-3.642-.497-3.642-2.793 0-1.04.9-1.837 2.28-1.837.968 0 1.765.319 2.338.881l-.62.815c-.497-.496-1.163-.721-1.82-.721-.639 0-1.052.319-1.052.778 0 1.171 3.642.45 3.642 2.774 0 1.04-.741 1.94-2.422 1.94-1.154 0-1.99-.412-2.553-.993M895.083 56.145v-5.286h-1.897v-.966h4.891v.966h-1.896v5.286h-1.098M903.775 53.024c0-1.294-.817-2.26-2.075-2.26-1.267 0-2.074.966-2.074 2.26 0 1.284.807 2.258 2.074 2.258 1.258 0 2.075-.974 2.075-2.258zm-5.275 0c0-1.866 1.323-3.234 3.2-3.234 1.868 0 3.201 1.368 3.201 3.234 0 1.865-1.333 3.233-3.2 3.233-1.878 0-3.201-1.368-3.201-3.233z"/>
    </g>
  </g>
</svg>
